<svg xmlns="http://www.w3.org/2000/svg" width="128.2" height="77.372" viewBox="0 0 128.2 77.372">
  <g id="noun_car_delivery_2326958" data-name="noun_car delivery_2326958" transform="translate(-7 -23.29)">
    <path id="Path_3112" data-name="Path 3112" d="M21.348,88.341A13.814,13.814,0,0,0,48.8,88.5H91.063a13.825,13.825,0,0,0,27.449,0h11.073a5.572,5.572,0,0,0,4.055-1.4c1.56-1.716,1.56-4.211,1.56-7.018V78.36L132.393,55.9a1.693,1.693,0,0,0-1.248-1.248l-14.816-3.587A53.984,53.984,0,0,0,69.073,23.305H16.982A9.594,9.594,0,0,0,7,32.975v39.77A15.633,15.633,0,0,0,21.348,88.341Zm93.889-1.4a10.605,10.605,0,1,1-10.605-10.605A10.616,10.616,0,0,1,115.237,86.938Zm-43.2-47.1a1.56,1.56,0,0,1,3.119,0V58.709H98.549a1.56,1.56,0,0,1,0,3.119H73.6a1.473,1.473,0,0,1-1.56-1.56ZM60.027,61.828H36.321a1.56,1.56,0,1,1,0-3.119H60.027a1.473,1.473,0,0,1,1.56,1.56A1.563,1.563,0,0,1,60.027,61.828ZM36.321,36.874H60.027a1.56,1.56,0,0,1,0,3.119H36.321a1.473,1.473,0,0,1-1.56-1.56A1.563,1.563,0,0,1,36.321,36.874ZM27.743,47.791H65.173a1.56,1.56,0,1,1,0,3.119H27.743a1.473,1.473,0,0,1-1.56-1.56A1.563,1.563,0,0,1,27.743,47.791Zm7.174,28.541A10.605,10.605,0,1,1,24.312,86.938,10.616,10.616,0,0,1,34.917,76.332Z" transform="translate(0 0)" fill="#fff"/>
  </g>
</svg>
