<svg id="noun_Money_2430001" xmlns="http://www.w3.org/2000/svg" width="45.654" height="36.879" viewBox="0 0 45.654 36.879">
  <g id="Group_659" data-name="Group 659" transform="translate(0 0)">
    <g id="Group_650" data-name="Group 650" transform="translate(6.309 3.846)">
      <path id="Path_663" data-name="Path 663" d="M28.1,37.916a1.01,1.01,0,0,1-1.008-.864,1.056,1.056,0,0,1,.792-1.224l31.252-6.049a2.918,2.918,0,0,1,2.3.5,2.808,2.808,0,0,1,1.3,1.944L63.6,36.62a1.031,1.031,0,1,1-2.016.432l-.864-4.393a1.049,1.049,0,0,0-.432-.648,1,1,0,0,0-.792-.144l-31.18,5.977A.265.265,0,0,1,28.1,37.916Z" transform="translate(-27.061 -29.726)" fill="#00dcdc"/>
    </g>
    <g id="Group_651" data-name="Group 651" transform="translate(6.048)">
      <path id="Path_664" data-name="Path 664" d="M27.708,36.421a.93.93,0,0,1-.936-.648,1.093,1.093,0,0,1,.576-1.368l23.979-9.793a3.1,3.1,0,0,1,4.032,1.728l1.368,3.312a1.05,1.05,0,1,1-1.944.792L53.415,27.2a1.065,1.065,0,0,0-1.368-.576L28.068,36.349A3.119,3.119,0,0,1,27.708,36.421Z" transform="translate(-26.699 -24.385)" fill="#00dcdc"/>
    </g>
    <g id="Group_658" data-name="Group 658" transform="translate(0 9.948)">
      <g id="Group_652" data-name="Group 652">
        <path id="Path_665" data-name="Path 665" d="M60.857,65.131H21.4a3.073,3.073,0,0,1-3.1-3.1V41.3a3.073,3.073,0,0,1,3.1-3.1H60.857a3.073,3.073,0,0,1,3.1,3.1V62.035A3.119,3.119,0,0,1,60.857,65.131ZM21.4,40.288A.984.984,0,0,0,20.388,41.3V62.035A.984.984,0,0,0,21.4,63.043H60.857a.984.984,0,0,0,1.008-1.008V41.3a.984.984,0,0,0-1.008-1.008Z" transform="translate(-18.3 -38.2)" fill="#00dcdc"/>
      </g>
      <g id="Group_653" data-name="Group 653" transform="translate(3.888 4.104)">
        <path id="Path_666" data-name="Path 666" d="M57.472,62.55H27.8a1.156,1.156,0,0,1-.792-.36,1.083,1.083,0,0,1-.288-.792v-.216a2.075,2.075,0,0,0-2.016-2.088A1.03,1.03,0,0,1,23.7,58.086V48.365a.984.984,0,0,1,1.008-1.008,2.029,2.029,0,0,0,2.016-2.088v-.216a1.083,1.083,0,0,1,.288-.792,1.156,1.156,0,0,1,.792-.36H57.472a1.156,1.156,0,0,1,.792.36,1.083,1.083,0,0,1,.288.792v.216a2.075,2.075,0,0,0,2.016,2.088,1.03,1.03,0,0,1,1.008,1.008v9.793a.984.984,0,0,1-1.008,1.008,2.029,2.029,0,0,0-2.016,2.088v.216a1,1,0,0,1-1.08,1.08ZM28.741,60.534H56.464a4.126,4.126,0,0,1,2.952-3.24V49.229a4.126,4.126,0,0,1-2.952-3.24H28.741a4.126,4.126,0,0,1-2.952,3.24v8.065A3.919,3.919,0,0,1,28.741,60.534Z" transform="translate(-23.7 -43.9)" fill="#00dcdc"/>
      </g>
      <g id="Group_654" data-name="Group 654" transform="translate(17.642 7.417)">
        <path id="Path_667" data-name="Path 667" d="M47.985,60.6c-2.88,0-5.185-2.736-5.185-6.049S45.1,48.5,47.985,48.5s5.185,2.736,5.185,6.049S50.865,60.6,47.985,60.6Zm0-10.081c-1.728,0-3.168,1.8-3.168,4.033s1.44,4.032,3.168,4.032,3.168-1.8,3.168-4.032S49.713,50.516,47.985,50.516Z" transform="translate(-42.8 -48.5)" fill="#00dcdc"/>
      </g>
      <g id="Group_657" data-name="Group 657" transform="translate(8.641 12.439)">
        <g id="Group_655" data-name="Group 655">
          <path id="Path_668" data-name="Path 668" d="M31.308,57.509a1.279,1.279,0,0,1-.72-.288.925.925,0,0,1-.288-.72v-.216a.265.265,0,0,1,.072-.216.251.251,0,0,1,.072-.144c.072-.072.072-.144.144-.144a1.065,1.065,0,0,1,.936-.288.265.265,0,0,1,.216.072.251.251,0,0,1,.144.072c.072.072.144.072.144.144a.924.924,0,0,1,.288.72,1.279,1.279,0,0,1-.288.72l-.144.144a.223.223,0,0,1-.144.072c-.072,0-.144.072-.216.072Z" transform="translate(-30.3 -55.474)" fill="#00dcdc"/>
        </g>
        <g id="Group_656" data-name="Group 656" transform="translate(26.355 0)">
          <path id="Path_669" data-name="Path 669" d="M67.908,57.509h-.216a.265.265,0,0,1-.216-.072.252.252,0,0,1-.144-.072c-.072-.072-.144-.072-.144-.144a.924.924,0,0,1-.288-.72v-.216a.265.265,0,0,1,.072-.216.251.251,0,0,1,.072-.144c.072-.072.072-.144.144-.144l.144-.144a.223.223,0,0,1,.144-.072c.072,0,.144-.072.216-.072a1.065,1.065,0,0,1,.936.288l.144.144a.223.223,0,0,1,.072.144c0,.072.072.144.072.216V56.5a1.279,1.279,0,0,1-.288.72A.924.924,0,0,1,67.908,57.509Z" transform="translate(-66.9 -55.474)" fill="#00dcdc"/>
        </g>
      </g>
    </g>
  </g>
</svg>
