<svg xmlns="http://www.w3.org/2000/svg" width="61.218" height="77.914" viewBox="0 0 61.218 77.914">
  <g id="noun_Download_3165345" transform="translate(-5 -2)">
    <g id="Layer_9" data-name="Layer 9" transform="translate(5 2)">
      <path id="Path_3119" data-name="Path 3119" d="M49.522,15.913V2.473a8.181,8.181,0,0,1,3.812,2.532L64.27,18.139a3.368,3.368,0,0,1,.39.557H52.3A2.783,2.783,0,0,1,49.522,15.913Zm16.7,8.348v47.3a8.348,8.348,0,0,1-8.348,8.348H13.348A8.348,8.348,0,0,1,5,71.566V10.348A8.348,8.348,0,0,1,13.348,2H43.957V15.913A8.348,8.348,0,0,0,52.3,24.261Zm-17.5,20.285a2.783,2.783,0,0,0-3.951,0l-6.372,6.4V29.826a2.783,2.783,0,0,0-5.565,0v21.12l-6.372-6.4A2.794,2.794,0,1,0,22.5,48.5L33.633,59.629a2.783,2.783,0,0,0,3.951,0L48.715,48.5a2.783,2.783,0,0,0,0-3.951Z" transform="translate(-5 -2)" fill="#fff"/>
    </g>
  </g>
</svg>
