<svg xmlns="http://www.w3.org/2000/svg" width="111.832" height="98.043" viewBox="0 0 111.832 98.043">
  <g id="noun_buy_1975789" transform="translate(-3.382 -9.042)">
    <path id="Path_3113" data-name="Path 3113" d="M56.035,33.247l.33.825a6.476,6.476,0,0,0,.775,1.44,4.006,4.006,0,0,0,1.219,1.119,3.823,3.823,0,0,0,1.8.517,5,5,0,0,0,2.06-.4l.741-.3,1.05,2.625L61.2,40.208l1.4,3.5,2.814-1.125.325.814,3.5-1.4-.325-.814,1.261-.5a3.537,3.537,0,0,0,2.006-1.9,4.54,4.54,0,0,0-.09-3.4l-.718-1.8a5.158,5.158,0,0,0-1.253-1.862,3.5,3.5,0,0,0-3.789-.66l-1.261.5-.994-2.489,3.118-1.247-1.4-3.5-3.118,1.247-.325-.814-3.5,1.4.325.814-.738.3A4.963,4.963,0,0,0,56.67,28.4a3.809,3.809,0,0,0-.952,1.612,3.981,3.981,0,0,0-.116,1.639A6.564,6.564,0,0,0,56.035,33.247ZM67.65,34.586a1.723,1.723,0,0,1,.216.392l.718,1.8a1.751,1.751,0,0,1,.113.434l-1.189.476L66.46,35.061Zm-6.087-1.627-.741.3a1.384,1.384,0,0,1-.55.131l-.085-.09h0a2.779,2.779,0,0,1-.321-.619l-.331-.83a2.8,2.8,0,0,1-.193-.67l.04-.149V31.02a1.351,1.351,0,0,1,.45-.254l.741-.3Z" transform="translate(13.337 3.907)" fill="#fff"/>
    <path id="Path_3114" data-name="Path 3114" d="M103.548,13.138a4.208,4.208,0,0,1-5.473-2.347l-.7-1.749L42.935,30.8l.7,1.749a4.212,4.212,0,0,1-2.348,5.474l-.19.077c-.545.048-.971.079-1.18.079-2.312,0-4.923,2.654-10.145,8.179a114.129,114.129,0,0,1-9.933,9.7,13.4,13.4,0,0,0-4.431,15.6l-3.794,3.567-1.175-1.331-7.056,6.23L27.2,107.085l7.056-6.233-2.28-2.581,2.786-3.113c3.086.068,13.067-.039,17.98-3.614l-.284-.39c2.409.172,4.957.284,7.085.284.413,0,.819,0,1.213-.011a5.749,5.749,0,0,0,4.676-2.185c1.51-1.967,1.519-4.707,1.328-6.437,2.924-1.66,3.155-4.843,3.285-6.671.021-.3.04-.575.07-.82a2.178,2.178,0,0,0-.2-1.208,7.2,7.2,0,0,0,2.538-3.8,4.323,4.323,0,0,0,.056-.632h36.051V67.791a4.216,4.216,0,0,1,4.212-4.211h1.883V37.472l.565-.226L105.3,12.437ZM27.527,101.767,8.7,80.446l1.41-1.244,18.826,21.32Zm6.5-10.4-.9-.043-3.673,4.1L14.107,78.037l5.925-5.579-.7-1.278a9.682,9.682,0,0,1,2.89-12.213A117.13,117.13,0,0,0,32.51,48.944c2.683-2.839,6.357-6.726,7.407-7,.632,0,1.821-.116,4.039-.336,3.779-.378,14.63-1.458,17.891-.584-3.425,4.573-12.01,10.448-16.015,10.07a4.273,4.273,0,0,0-3.47.89c-1.15,1.107-1.062,2.649-.968,4.283a12.989,12.989,0,0,1-1.454,7.749l3.3,1.809a16.356,16.356,0,0,0,1.008-2.249h1.464A4.213,4.213,0,0,1,49.8,66.8a4.773,4.773,0,0,0-1.878,3.463,5,5,0,0,0,.732,2.747c-1.747,1.354-3.263,3.919-2.742,8.283a9.012,9.012,0,0,0-3.149,5.72,2.741,2.741,0,0,0,1.651,3.1,8.872,8.872,0,0,0,1.308.3A49.027,49.027,0,0,1,34.031,91.367ZM66.273,76.032c-.157,2.1-.443,3.193-1.887,3.719-1.276-.074-5.481-.3-9.36-.3a42.119,42.119,0,0,0-5.459.262c-.044-3.3,1.74-4.045,2.29-4.19C57.416,75.372,63.927,75.534,66.273,76.032ZM51.8,62.658a4.179,4.179,0,0,1,4.878,2.52l.291.728h-3.5A7.9,7.9,0,0,0,51.8,62.658Zm-4.2-3.771.525,1.315c-.176-.055-.345-.123-.525-.167Zm14.84,28.065a2.031,2.031,0,0,1-1.762.707q-.554.011-1.136.011a101.119,101.119,0,0,1-12.915-.909c.348-1.12,1.469-2.954,3.08-3.257a31.971,31.971,0,0,1,5.32-.288c2.946,0,6.171.138,8.008.232A5.439,5.439,0,0,1,62.437,86.952Zm3.658-14.725a79.415,79.415,0,0,0-13.73-.483,2.239,2.239,0,0,1-.682-1.3,1.281,1.281,0,0,1,.551-.773H68.71A6.658,6.658,0,0,1,66.094,72.227Zm44.788-12.192a8.005,8.005,0,0,0-5.871,5.871H59.928l10.895-4.354a14.109,14.109,0,0,0,22.323-8.921l17.736-7.09ZM81.124,59.2v-.578h1.357a3.609,3.609,0,0,0,3.647-3.189l2.558-1.022a10.3,10.3,0,0,1-13.412,5.36l2.083-.832V59.2Zm29.758-16.6a4.151,4.151,0,0,1,0-1.415Zm-3.188-3.89a7.931,7.931,0,0,0-.569,4.275L59.269,62.114a8,8,0,0,0-7.634-3.272l-1.853-4.637c5.278-1.72,11.521-6.481,14.713-10.461a14.092,14.092,0,1,0-1.229-6.181c-2.638-.84-7.521-.811-16.368-.014.048-.1.114-.186.158-.288a7.923,7.923,0,0,0,.569-4.277L95.481,13.858a8,8,0,0,0,7.634,3.272L110.4,35.356A7.912,7.912,0,0,0,107.694,38.711ZM67.861,33.9a10.356,10.356,0,1,1-.1,7.924A10.28,10.28,0,0,1,67.861,33.9Z" fill="#fff"/>
  </g>
</svg>
