<svg id="noun_secure_1270939" xmlns="http://www.w3.org/2000/svg" width="91" height="91" viewBox="0 0 91 91">
  <path id="Path_3115" data-name="Path 3115" d="M83.72,0H7.28A7.3,7.3,0,0,0,0,7.28v6.785H91V7.28A7.3,7.3,0,0,0,83.72,0Z" fill="#fff"/>
  <g id="Group_563" data-name="Group 563" transform="translate(0 25.44)">
    <path id="Path_3116" data-name="Path 3116" d="M84.7,30.866c1.663,3,5.01,3.964,13.778,3.964V27.957H83.088Z" transform="translate(-7.478 -27.956)" fill="#fff"/>
    <path id="Path_3117" data-name="Path 3117" d="M38.424,43.929v-9.1h9.1c8.768,0,12.116-.963,13.778-3.964l1.613-2.909H0v26.35a7.278,7.278,0,0,0,2.138,5.142,7.313,7.313,0,0,0,2.983,1.81,7.213,7.213,0,0,0,2.159.329H38.424Z" transform="translate(0 -27.956)" fill="#fff"/>
    <path id="Path_3118" data-name="Path 3118" d="M95.7,67.31V44.653c-8.145,0-17.193-.45-21.738-8.653-4.545,8.2-13.593,8.653-21.738,8.653V67.31c0,10.348,2.2,15.432,5.894,18.312a14.36,14.36,0,0,0,2.787,1.68A123.062,123.062,0,0,1,73.962,94.24,122.943,122.943,0,0,1,87.019,87.3a13.619,13.619,0,0,0,3.614-2.385,12.607,12.607,0,0,0,2.734-3.77C94.868,78.053,95.7,73.679,95.7,67.31Z" transform="translate(-4.7 -28.68)" fill="#fff"/>
  </g>
</svg>
